# AST/ASF file generated using VICON BodyLanguage
# -----------------------------------------------
:version 1.10
:name VICON
:units
  mass 1.0
  length 0.45
  angle deg
:documentation
   .ast/.asf automatically generated from VICON data using
   VICON BodyBuilder and BodyLanguage model FoxedUp or BRILLIANT.MOD
:root
   order TX TY TZ RX RY RZ
   axis XYZ
   position 0 0 0  
   orientation 0 0 0 
:bonedata
  begin
     id 1 
     name lhipjoint
     direction 0.623415 -0.642378 0.445763 
     length 2.49859 
     axis 0 0 0  XYZ
  end
  begin
     id 2 
     name lfemur
     direction 0.34202 -0.939693 0  
     length 6.69689  
     axis 0 0 20  XYZ
    dof rx ry rz
    limits (-160.0 20.0)
           (-70.0 70.0)
           (-60.0 70.0)
  end
  begin
     id 3 
     name ltibia
     direction 0.34202 -0.939693 0   
     length 7.37574   
     axis 0 0 20   XYZ
    dof rx
    limits (-10.0 170.0)
  end
  begin
     id 4 
     name lfoot
     direction 0.084323 -0.231675 0.969132   
     length 2.09111   
     axis -90 7.62852e-016 20   XYZ
    dof rx rz
    limits (-45.0 90.0)
           (-70.0 20.0)
  end
  begin
     id 5 
     name ltoes
     direction 1.5357e-011 -4.21957e-011 1   
     length 1.04989   
     axis -90 7.62852e-016 20   XYZ
    dof rx
    limits (-90.0 20.0)
  end
  begin
     id 6 
     name rhipjoint
     direction -0.605402 -0.653903 0.45376   
     length 2.45455  
     axis 0 0 0  XYZ 
  end
  begin
     id 7 
     name rfemur
     direction -0.34202 -0.939693 0   
     length 6.64523   
     axis 0 0 -20   XYZ
    dof rx ry rz
    limits (-160.0 20.0)
           (-70.0 70.0)
           (-70.0 60.0)
  end
  begin
     id 8 
     name rtibia
     direction -0.34202 -0.939693 0   
     length 7.3339   
     axis 0 0 -20   XYZ
    dof rx
    limits (-10.0 170.0)
 end
 begin
     id 9 
     name rfoot
     direction -0.120854 -0.332043 0.93549   
     length 2.23135  
     axis -90 -7.62852e-016 -20   XYZ
    dof rx rz
    limits (-45.0 90.0)
           (-20.0 70.0)
  end
  begin
     id 10 
     name rtoes
     direction -1.53563e-011 -4.21914e-011 1   
     length 1.10614   
     axis -90 -7.62852e-016 -20   XYZ
    dof rx
    limits (-90.0 20.0)
  end
  begin
     id 11 
     name lowerback
     direction 0.0319682 0.998615 -0.0417941   
     length 2.02718   
     axis 0 0 0   XYZ
    dof rx ry rz
    limits (-20.0 45.0)
           (-30.0 30.0)
           (-30.0 30.0)
  end
  begin
     id 12 
     name upperback
     direction 7.63181e-005 0.995808 0.0914691   
     length 1.97539   
     axis 0 0 0   XYZ
    dof rx ry rz
    limits (-20.0 45.0)
           (-30.0 30.0)
           (-30.0 30.0)
  end
  begin
     id 13 
     name thorax
     direction -0.016423 0.993627 0.111514   
     length 2.00349   
     axis 0 0 0   XYZ
    dof rx ry rz
    limits (-20.0 45.0)
           (-30.0 30.0)
           (-30.0 30.0)
  end
  begin
     id 14 
     name lowerneck
     direction -0.174763 0.981668 -0.0760716   
     length 1.71436   
     axis 0 0 0   XYZ
    dof rx ry rz
    limits (-20.0 45.0)
           (-30.0 30.0)
           (-30.0 30.0)
  end
  begin
     id 15 
     name upperneck
     direction 0.345458 0.934587 -0.0848868   
     length 1.72805   
     axis 0 0 0   XYZ
    dof rx ry rz
    limits (-20.0 45.0)
           (-30.0 30.0)
           (-30.0 30.0)
  end
  begin
     id 16
     name head
     direction 0.13001 0.989848 -0.0574291  
     length 1.767  
     axis 0 0 0   XYZ
    dof rx ry rz
    limits (-20.0 45.0)
           (-30.0 30.0)
           (-30.0 30.0)
  end
  begin
     id 17 
     name lclavicle
     direction 0.952951 0.290122 0.0878234  
     length 3.54654  
     axis 0 0 0   XYZ
    dof ry rz
    limits (-20.0 10.0)
           (0.0 20.0)
  end
  begin
     id 18 
     name lhumerus
     direction 1 -4.48957e-011 -4.56525e-028   
     length 5.19807   
     axis 180 -30 -90   XYZ
    dof rx ry rz
    limits (-60.0 90.0)
           (-90.0 90.0)
           (-90.0 90.0)
  end
  begin
     id 19
     name lradius
     direction 1 -4.48979e-011 -2.0317e-027   
     length 3.0937   
     axis 180 -30 -90   XYZ
    dof rx
    limits (-10.0 170.0)
  end
  begin
     id 20
     name lwrist
     direction 1 -4.48953e-011 -3.05809e-027   
     length 1.54685   
     axis 8.48514e-016 90 90   XYZ
    dof ry
    limits (-180.0 0.0)
 end
  begin
     id 21 
     name lhand
     direction 1 -4.48952e-011 -6.11639e-027   
     length 0.672632   
     axis 3.9013e-015 90 90   XYZ
    dof rx rz
    limits (-90.0 90.0)
           (-45.0 45.0)
  end
  begin
     id 22 
     name lfingers
     direction 1 -4.48925e-011 -1.22426e-026   
     length 0.542293   
     axis 7.80276e-015 90 90   XYZ
    dof rx
    limits (0.0 90.0)
  end
  begin
     id 23
     name lthumb
     direction 0.707107 -6.3486e-011 0.707107   
     length 0.778628   
     axis -90 45 5.37419e-014   XYZ
    dof rx rz
    limits (-45.0 45.0)
           (-45.0 45.0)
  end
  begin
     id 24 
     name rclavicle
     direction -0.960732 0.273675 -0.0457849   
     length 3.52079  
     axis 0 0 0   XYZ 
    dof ry rz
    limits (-10.0 20.0)
           (-20.0 0.0)
  end
  begin
     id 25 
     name rhumerus
     direction -1 -4.48976e-011 -1.63613e-027  
     length 5.45222   
     axis 180 30 90   XYZ
    dof rx ry rz
    limits (-90.0 60.0)
           (-90.0 90.0)
           (-90.0 90.0)
  end
  begin
     id 26 
     name rradius
     direction -1 -4.48957e-011 -7.00033e-028   
     length 3.01284   
     axis 180 30 90   XYZ
    dof rx
    limits (-10.0 170.0)
  end
  begin
     id 27 
     name rwrist
     direction -1 -4.48983e-011 -3.05543e-027   
     length 1.50642   
     axis 8.48514e-016 -90 -90   XYZ
    dof ry
    limits (-180.0 0.0)
  end
  begin
     id 28
     name rhand
     direction -1 -4.48984e-011 -6.11072e-027   
     length 0.622296   
     axis 3.9013e-015 -90 -90   XYZ
    dof rx rz
    limits (-90.0 90.0)
           (-45.0 45.0)
  end
  begin
     id 29
     name rfingers
     direction -1 -4.48865e-011 -1.22637e-026   
     length 0.501711   
     axis 7.80276e-015 -90 -90   XYZ
    dof rx
    limits (0.0 90.0)
  end
  begin
     id 30
     name rthumb
     direction -0.707107 -6.34932e-011 0.707107   
     length 0.72036   
     axis -90 -45 -5.37419e-014   XYZ
    dof rx rz
    limits (-45.0 45.0)
           (-45.0 45.0)
  end
:hierarchy
  begin
    root lhipjoint rhipjoint lowerback
    lhipjoint lfemur
    lfemur ltibia
    ltibia lfoot
    lfoot ltoes
    rhipjoint rfemur
    rfemur rtibia
    rtibia rfoot
    rfoot rtoes
    lowerback upperback
    upperback thorax
    thorax lowerneck lclavicle rclavicle
    lowerneck upperneck
    upperneck head
    lclavicle lhumerus
    lhumerus lradius
    lradius lwrist
    lwrist lhand lthumb
    lhand lfingers
    rclavicle rhumerus
    rhumerus rradius
    rradius rwrist
    rwrist rhand rthumb
    rhand rfingers
  end

#!OML:ASF H:\Not Pregnant\Project 1\Capture day 1\Session 1\non-pregnant.ASF
:FULLY-SPECIFIED
:DEGREES
1
root -5.69269 16.3482 35.1031 151.786 -82.4161 -138.662
lowerback -14.7606 2.96628 3.53971
upperback -5.95419 3.12932 -0.447253
thorax 2.18406 1.37702 -1.95273
lowerneck 18.9574 -8.46005 -30.1615
upperneck -6.64209 -19.7693 45.2156
head 3.8883 -13.1947 24.2722
rclavicle 2.99668e-014 1.82882e-014
rhumerus -36.0301 13.5955 -98.8661
rradius 28.9277
rwrist 21.183
rhand -5.73592 6.04998
rfingers 7.12502
rthumb 20.0862 -22.9317
lclavicle 2.99668e-014 1.82882e-014
lhumerus -41.4811 -8.65256 90.1302
lradius 34.1441
lwrist 49.9058
lhand 13.456 -5.8718
lfingers 7.12502
lthumb 38.3964 19.8185
rfemur 0 0 0
rtibia 0
rfoot 0 0
rtoes 0
lfemur -16.5416 6.12443 -16.6046
ltibia 15.8322
lfoot -13.5912 -4.94709
ltoes -17.0586
2
root -5.69376 16.3491 35.1036 151.883 -82.432 -138.76
lowerback -14.7568 2.95752 3.56561
upperback -5.97049 3.11449 -0.472418
thorax 2.16664 1.3682 -1.99667
lowerneck 18.9624 -8.42918 -30.183
upperneck -6.60177 -19.7429 45.2129
head 3.88794 -13.1825 24.293
rclavicle -3.67752e-015 -1.19271e-015
rhumerus -36.109 13.7704 -98.9864
rradius 28.9869
rwrist 21.0053
rhand -5.77725 5.93254
rfingers 7.12502
rthumb 20.0465 -23.0533
lclavicle -3.67752e-015 -1.19271e-015
lhumerus -41.5656 -8.77318 90.2207
lradius 34.2723
lwrist 49.9191
lhand 12.8974 -5.78396
lfingers 7.12502
lthumb 37.869 20.0508
rfemur 0 0 0
rtibia 0
rfoot 0 0
rtoes 0
lfemur -16.5146 6.06995 -16.6193
ltibia 15.7934
lfoot -13.5652 -4.93509
ltoes -16.9054
3
root -5.69459 16.3492 35.1019 151.829 -82.4115 -138.712
lowerback -14.7701 2.94193 3.54276
upperback -5.95626 3.09533 -0.432409
thorax 2.18423 1.35993 -1.9444
lowerneck 18.9304 -8.41874 -30.2286
upperneck -6.59419 -19.7212 45.1868
head 3.88736 -13.163 24.2862
rclavicle -3.42904e-015 -4.37326e-015
rhumerus -36.0765 13.7364 -98.9201
rradius 28.9455
rwrist 21.1265
rhand -5.7098 6.09766
rfingers 7.12502
rthumb 20.1113 -22.8814
lclavicle -3.42904e-015 -4.37326e-015
lhumerus -41.6447 -8.94369 90.4403
lradius 34.0951
lwrist 49.7626
lhand 12.4804 -7.18607
lfingers 7.12502
lthumb 37.475 18.7541
rfemur 0 0 0
rtibia 0
rfoot 0 0
rtoes 0
lfemur -16.5066 6.11461 -16.5959
ltibia 15.8037
lfoot -13.5779 -4.96744
ltoes -16.804
4
root -5.69495 16.3489 35.1022 151.699 -82.4143 -138.573
lowerback -14.7285 2.98253 3.60951
upperback -5.99007 3.14299 -0.492629
thorax 2.13596 1.38069 -2.0392
lowerneck 18.966 -8.43196 -30.1458
upperneck -6.60752 -19.729 45.1976
head 3.86918 -13.1726 24.2706
rclavicle -1.35671e-014 -2.46493e-014
rhumerus -36.1033 13.6079 -98.9615
rradius 28.9525
rwrist 21.1271
rhand -5.76017 6.01022
rfingers 7.12502
rthumb 20.0629 -22.9739
lclavicle -1.35671e-014 -2.46493e-014
lhumerus -41.6256 -8.89644 90.2689
lradius 34.2155
lwrist 50.11
lhand 12.8302 -6.34408
lfingers 7.12502
lthumb 37.8055 19.5078
rfemur 0 0 0
rtibia 0
rfoot 0 0
rtoes 0
lfemur -16.5172 6.11056 -16.5852
ltibia 15.7987
lfoot -13.573 -4.96963
ltoes -16.8424
5
root -5.69565 16.3491 35.1019 151.663 -82.4167 -138.534
lowerback -14.6953 2.99011 3.63501
upperback -6.01803 3.15084 -0.513474
thorax 2.09173 1.38255 -2.07599
lowerneck 18.9764 -8.41945 -30.1488
upperneck -6.58364 -19.7231 45.1984
head 3.87114 -13.1716 24.2795
rclavicle 5.06901e-015 -6.36111e-015
rhumerus -36.1414 13.5716 -98.9919
rradius 28.9521
rwrist 21.1383
rhand -5.76766 6.01087
rfingers 7.12502
rthumb 20.0557 -22.974
lclavicle 5.06901e-015 -6.36111e-015
lhumerus -41.6676 -8.90186 90.2375
lradius 34.2626
lwrist 50.3202
lhand 12.8548 -6.2046
lfingers 7.12502
lthumb 37.8287 19.641
rfemur 0 0 0
rtibia 0
rfoot 0 0
rtoes 0
lfemur -16.5233 6.11611 -16.5819
ltibia 15.8064
lfoot -13.5783 -4.98657
ltoes -16.7895
6
root -5.69615 16.3493 35.1024 151.741 -82.4285 -138.603
lowerback -14.66 2.9986 3.65214
upperback -6.05143 3.16113 -0.541049
thorax 2.04079 1.38534 -2.11492
lowerneck 18.9897 -8.40515 -30.1605
upperneck -6.55678 -19.7211 45.2048
head 3.8779 -13.1739 24.2964
rclavicle 4.00551e-014 7.95139e-016
rhumerus -36.1823 13.5323 -99.0203
rradius 28.9503
rwrist 21.1516
rhand -5.77686 6.01081
rfingers 7.12502
rthumb 20.0468 -22.975
lclavicle 4.00551e-014 7.95139e-016
lhumerus -41.7121 -8.90705 90.2057
lradius 34.2949
lwrist 50.48
lhand 12.9001 -6.10152
lfingers 7.12502
lthumb 37.8715 19.7325
rfemur 0 0 0
rtibia 0
rfoot 0 0
rtoes 0
lfemur -16.5343 6.11816 -16.6013
ltibia 15.8081
lfoot -13.5804 -4.99899
ltoes -16.7455
7
root -5.69659 16.3495 35.1028 151.772 -82.4353 -138.623
lowerback -14.6286 3.00254 3.66649
upperback -6.08349 3.16513 -0.556254
thorax 1.99213 1.38515 -2.14025
lowerneck 18.9991 -8.38636 -30.1912
upperneck -6.52447 -19.7186 45.2125
head 3.89015 -13.176 24.3212
rclavicle 2.127e-014 3.18055e-015
rhumerus -36.2244 13.5152 -99.0448
rradius 28.9501
rwrist 21.1599
rhand -5.78918 5.99809
rfingers 7.12502
rthumb 20.035 -22.989
lclavicle 2.127e-014 3.18055e-015
lhumerus -41.7578 -8.90674 90.1919
lradius 34.3117
lwrist 50.5345
lhand 12.9044 -6.07114
lfingers 7.12502
lthumb 37.8755 19.7618
rfemur 0 0 0
rtibia 0
rfoot 0 0
rtoes 0
lfemur -16.545 6.11586 -16.6105
ltibia 15.8058
lfoot -13.5787 -5.00524
ltoes -16.7068
8
root -5.69697 16.3498 35.1032 151.788 -82.4386 -138.627
lowerback -14.6077 3.00456 3.6779
upperback -6.10862 3.16639 -0.562509
thorax 1.95552 1.38408 -2.15443
lowerneck 19.0033 -8.36763 -30.2324
upperneck -6.49544 -19.7163 45.221
head 3.90459 -13.1777 24.349
rclavicle 1.11816e-014 1.59028e-015
rhumerus -36.2579 13.5159 -99.0582
rradius 28.9508
rwrist 21.1639
rhand -5.79945 5.98641
rfingers 7.12502
rthumb 20.0251 -23.0017
lclavicle 1.11816e-014 1.59028e-015
lhumerus -41.8011 -8.92383 90.2113
lradius 34.2957
lwrist 50.4531
lhand 12.8353 -6.22702
lfingers 7.12502
lthumb 37.8103 19.6236
rfemur 0 0 0
rtibia 0
rfoot 0 0
rtoes 0
lfemur -16.5579 6.10455 -16.6141
ltibia 15.8067
lfoot -13.5769 -4.99847
ltoes -16.6802
